<svg xmlns="http://www.w3.org/2000/svg" xmlns:xlink="http://www.w3.org/1999/xlink" viewBox="0 0 201.6 201.6"><defs><style>.cls-1{fill:url(#Dégradé_sans_nom);}.cls-2{fill:#fff;}</style><linearGradient id="Dégradé_sans_nom" x1="165.27" y1="180.48" x2="36.34" y2="25.49" gradientTransform="matrix(1, 0, 0, -1, 0, 203.79)" gradientUnits="userSpaceOnUse"><stop offset="0" stop-color="#7540ee"/><stop offset="0.88" stop-color="#5e22e6"/></linearGradient></defs><title>Fichier 1</title><g id="Calque_2" data-name="Calque 2"><g id="Calque_1-2" data-name="Calque 1"><g id="Calque_2-2" data-name="Calque 2"><g id="Calque_1_-_copie_3" data-name="Calque 1 - copie 3"><circle class="cls-1" cx="100.8" cy="100.8" r="100.8"/><path class="cls-2" d="M80.51,106.84,68,119.32a2.35,2.35,0,0,0,0,3.33l10.8,10.8a2.35,2.35,0,0,0,3.33,0L94.65,121l3.86-3.86L112.64,103l18.44-18.44a2.36,2.36,0,0,0-1.67-4H107.8a2.4,2.4,0,0,0-1.67.69l-7.62,7.62L84.36,103Z"/><path class="cls-2" d="M76.8,142.84,72.94,139,58.81,124.85l-2.19-2.2a2.35,2.35,0,0,1,0-3.33l2.19-2.19L72.94,103l3.86-3.86L90.93,85l.45-.44a2.36,2.36,0,0,0-1.67-4H68.11a2.36,2.36,0,0,0-1.67.69L62.67,85l-3.86,3.85L44.67,103l-3.85,3.84L28.35,119.32a2.35,2.35,0,0,0,0,3.33l12.47,12.47L44.67,139l14.14,14.13L62.67,157l3.94,3.95a2.36,2.36,0,0,0,1.67.69h21.6a2.36,2.36,0,0,0,1.66-4l-.61-.61Z"/><path class="cls-2" d="M124.81,58.77l3.85,3.86L142.8,76.76,145,79a2.37,2.37,0,0,1,0,3.34l-2.19,2.19L128.66,98.61l-3.85,3.86L110.67,116.6l-.44.45a2.35,2.35,0,0,0,1.67,4h21.59a2.36,2.36,0,0,0,1.67-.69l3.78-3.78,3.86-3.84,14.13-14.15,3.86-3.85,12.47-12.47a2.35,2.35,0,0,0,0-3.33L160.79,66.49l-3.86-3.86L142.8,48.5l-3.86-3.86-3.95-4a2.36,2.36,0,0,0-1.67-.69h-21.6a2.36,2.36,0,0,0-1.66,4l.61.61Z"/></g></g></g></g></svg>