<?xml version="1.0" encoding="utf-8"?>
<!-- Generator: Adobe Illustrator 24.0.0, SVG Export Plug-In . SVG Version: 6.00 Build 0)  -->
<svg version="1.1" id="Calque_1" xmlns="http://www.w3.org/2000/svg" xmlns:xlink="http://www.w3.org/1999/xlink" x="0px" y="0px"
	 viewBox="0 0 971.8 201.7" style="enable-background:new 0 0 971.8 201.7;" xml:space="preserve">
<style type="text/css">
	.st0{fill:url(#SVGID_1_);}
	.st1{fill:#FFFFFF;}
	.st2{fill:#0A1F44;}
</style>
<title>Frontendor Logo</title>
<g id="Calque_2_1_">
	<g id="Calque_1_-_copie_3">
		
			<linearGradient id="SVGID_1_" gradientUnits="userSpaceOnUse" x1="165.7255" y1="180.5897" x2="36.7966" y2="25.5943" gradientTransform="matrix(1 0 0 -1 0 204)">
			<stop  offset="0" style="stop-color:#7540EE"/>
			<stop  offset="0.88" style="stop-color:#5E22E6"/>
		</linearGradient>
		<circle class="st0" cx="101.3" cy="100.9" r="100.8"/>
		<path class="st1" d="M81,107l-12.5,12.5c-0.9,0.9-0.9,2.4,0,3.3l10.8,10.8c0.9,0.9,2.4,0.9,3.3,0l12.5-12.5l3.9-3.9l14.1-14.1
			l18.4-18.4c1.5-1.5,0.4-4-1.7-4h-21.6c-0.6,0-1.2,0.2-1.7,0.7L99,89l-14.1,14.1L81,107z"/>
		<path class="st1" d="M77.3,142.9l-3.9-3.9L59.3,125l-2.2-2.2c-0.9-0.9-0.9-2.4,0-3.3l2.2-2.2l14.1-14.1l3.9-3.9l14.1-14.1l0.4-0.4
			c1.5-1.5,0.4-4-1.7-4h-3.2H68.6c-0.6,0-1.2,0.2-1.7,0.7l-3.8,3.8L59.3,89l-14.1,14.1l-3.9,3.8l-12.5,12.5c-0.9,0.9-0.9,2.4,0,3.3
			l12.5,12.5l3.9,3.9l14.1,14.1l3.9,3.9l3.9,3.9c0.4,0.4,1,0.7,1.7,0.7h18h3.6c2.1,0,3.2-2.5,1.7-4l-0.6-0.6L77.3,142.9z"/>
		<path class="st1" d="M125.3,58.9l3.9,3.9l14.1,14.1l2.2,2.2c0.9,0.9,0.9,2.4,0,3.3l-2.2,2.2l-14.1,14.1l-3.9,3.9l-14.1,14.1
			l-0.4,0.4c-1.5,1.5-0.4,4,1.7,4h3.2H134c0.6,0,1.2-0.2,1.7-0.7l3.8-3.8l3.9-3.8l14.1-14.1l3.9-3.8l12.5-12.5
			c0.9-0.9,0.9-2.4,0-3.3l-12.5-12.5l-3.9-3.9l-14.1-14.1l-3.9-3.9l-3.9-3.9c-0.4-0.4-1-0.7-1.7-0.7h-18h-3.6c-2.1,0-3.2,2.5-1.7,4
			l0.6,0.6L125.3,58.9z"/>
	</g>
</g>
<g>
	<path class="st2" d="M273.6,151.1h-17V50.7H319v16h-45.4v28.2h40.8v15.7h-40.8V151.1z"/>
	<path class="st2" d="M370.1,81.7v16.7c-1.9-0.3-3.7-0.4-5.4-0.4c-12.4,0-18.5,6.7-18.5,20.2v32.8h-16.4V82.2h16v11
		c1.6-3.7,4.2-6.6,7.8-8.7c3.6-2.1,7.6-3.2,12.2-3.2C367.3,81.3,368.7,81.4,370.1,81.7z"/>
	<path class="st2" d="M413.5,80c10.4,0,18.9,3.4,25.7,10.3c6.7,6.9,10.1,15.6,10.1,26.2c0,10.6-3.4,19.3-10.1,26.3
		c-6.7,6.9-15.3,10.4-25.7,10.4c-10.3,0-18.8-3.5-25.6-10.4c-6.7-6.9-10.1-15.7-10.1-26.3c0-10.6,3.4-19.3,10.1-26.2
		C394.6,83.5,403.2,80,413.5,80z M399.8,132.6c3.7,3.9,8.3,5.9,13.7,5.9c5.4,0,9.9-1.9,13.7-5.8c3.7-3.9,5.6-9.2,5.6-16.1
		c0-6.8-1.9-12.1-5.6-15.9c-3.7-3.8-8.3-5.7-13.7-5.7c-5.4,0-9.9,1.9-13.7,5.7c-3.7,3.8-5.6,9.1-5.6,15.9S396.1,128.7,399.8,132.6z"
		/>
	<path class="st2" d="M481.5,111.3v39.8h-16.4V82.2h16v9.2c2.2-3.8,5.1-6.6,8.7-8.4c3.6-1.8,7.5-2.8,11.7-2.8
		c8.1,0,14.3,2.5,18.5,7.6c4.2,5.1,6.4,11.7,6.4,19.7v43.6H510v-40.8c0-4.6-1.1-8.3-3.4-11.1c-2.3-2.8-5.9-4.2-10.8-4.2
		c-4.5,0-8,1.5-10.5,4.6C482.8,102.7,481.5,106.6,481.5,111.3z"/>
	<path class="st2" d="M567.2,61.1v21.1h14.3v14.6h-14.3v32c0,3,0.7,5.2,2.1,6.6c1.4,1.4,3.6,2.1,6.7,2.1c1.9,0,3.8-0.2,5.7-0.6v13.6
		c-2.5,1-5.8,1.6-10,1.6c-6.4,0-11.5-1.8-15.1-5.4c-3.7-3.6-5.5-8.7-5.5-15.1V96.7h-12.7V82.2h3.5c3.5,0,6.1-1,7.9-3
		c1.8-2,2.7-4.6,2.7-7.8V61.1H567.2z"/>
	<path class="st2" d="M644.8,127l13.9,4.4c-2,6.3-5.7,11.5-11.1,15.6c-5.4,4.1-12.1,6.2-20,6.2c-9.8,0-18.1-3.3-25-10
		c-6.8-6.7-10.3-15.7-10.3-26.9c0-10.6,3.3-19.3,10-26c6.7-6.8,14.5-10.2,23.6-10.2c10.6,0,18.8,3.2,24.8,9.7
		c5.9,6.5,8.9,15.2,8.9,26.1c0,2.9-0.1,4.7-0.4,5.2h-50.4c0.2,5.2,2.1,9.5,5.7,12.9c3.6,3.4,8,5.1,13.1,5.1
		C636.4,139.1,642.1,135,644.8,127z M609.1,109h33.8c-0.2-4.3-1.7-8-4.6-10.9c-2.9-2.9-7-4.4-12.4-4.4c-4.9,0-8.9,1.5-11.9,4.6
		C611,101.4,609.4,105,609.1,109z"/>
	<path class="st2" d="M691.6,111.3v39.8h-16.4V82.2h16v9.2c2.2-3.8,5.1-6.6,8.7-8.4c3.6-1.8,7.5-2.8,11.7-2.8
		c8.1,0,14.3,2.5,18.5,7.6c4.2,5.1,6.4,11.7,6.4,19.7v43.6h-16.4v-40.8c0-4.6-1.1-8.3-3.4-11.1c-2.3-2.8-5.9-4.2-10.8-4.2
		c-4.5,0-8,1.5-10.5,4.6C692.9,102.7,691.6,106.6,691.6,111.3z"/>
	<path class="st2" d="M820.1,48.6v89.9c0,4.6,0.2,8.8,0.7,12.6h-15.7c-0.5-2.6-0.7-5.6-0.7-8.9c-1.7,3.1-4.3,5.7-7.9,7.6
		c-3.6,2-7.7,3-12.3,3c-9.8,0-17.8-3.4-23.9-10.3c-6.1-6.9-9.2-15.6-9.2-26c0-10.1,3.1-18.6,9.3-25.6c6.2-7,14-10.5,23.6-10.5
		c5.5,0,9.9,1,13.2,3c3.3,2,5.7,4.3,7,6.9V48.6H820.1z M767.5,116.4c0,6.6,1.7,11.9,5.1,15.9c3.4,4,7.9,6,13.4,6
		c5.4,0,9.8-2,13.2-6.1c3.4-4.1,5.1-9.4,5.1-16c0-6.5-1.7-11.7-5-15.6c-3.3-3.9-7.7-5.8-13.2-5.8c-5.5,0-10,2-13.4,5.9
		C769.2,104.7,767.5,109.9,767.5,116.4z"/>
	<path class="st2" d="M871.9,80c10.4,0,18.9,3.4,25.7,10.3c6.7,6.9,10.1,15.6,10.1,26.2c0,10.6-3.4,19.3-10.1,26.3
		c-6.7,6.9-15.3,10.4-25.7,10.4c-10.3,0-18.8-3.5-25.6-10.4c-6.7-6.9-10.1-15.7-10.1-26.3c0-10.6,3.4-19.3,10.1-26.2
		C853.1,83.5,861.7,80,871.9,80z M858.3,132.6c3.7,3.9,8.3,5.9,13.7,5.9s9.9-1.9,13.7-5.8c3.7-3.9,5.6-9.2,5.6-16.1
		c0-6.8-1.9-12.1-5.6-15.9c-3.7-3.8-8.3-5.7-13.7-5.7s-9.9,1.9-13.7,5.7c-3.7,3.8-5.6,9.1-5.6,15.9S854.6,128.7,858.3,132.6z"/>
	<path class="st2" d="M964,81.7v16.7c-1.9-0.3-3.7-0.4-5.4-0.4c-12.4,0-18.5,6.7-18.5,20.2v32.8h-16.4V82.2h16v11
		c1.6-3.7,4.2-6.6,7.8-8.7c3.6-2.1,7.6-3.2,12.2-3.2C961.1,81.3,962.5,81.4,964,81.7z"/>
</g>
</svg>
