<svg width="50" height="50" xmlns="http://www.w3.org/2000/svg"><g fill="#61DAFB" fill-rule="evenodd"><path d="M35.138 20.084c3.43 1.18 5.645 3.03 5.645 4.941 0 1.994-2.369 3.943-6.007 5.15-.193.063-.39.124-.59.184.07.288.135.571.19.85.718 3.627.164 6.611-1.539 7.596-1.648.954-4.313.017-7.01-2.304a20.908 20.908 0 01-.859-.784c-.222.214-.443.418-.663.611-2.786 2.435-5.646 3.445-7.35 2.463-1.65-.953-2.17-3.729-1.505-7.227.07-.368.153-.747.25-1.133a18.893 18.893 0 01-.859-.268c-3.5-1.197-5.806-3.17-5.806-5.138 0-1.905 2.147-3.74 5.508-4.913.376-.132.768-.255 1.175-.37a21.93 21.93 0 01-.235-1.052c-.696-3.559-.206-6.402 1.448-7.36 1.726-.999 4.6.073 7.467 2.62.175.155.35.317.526.485.263-.254.527-.497.79-.726 2.736-2.38 5.445-3.376 7.101-2.42 1.727.995 2.233 4.021 1.46 7.776-.048.228-.1.461-.158.697.35.101.692.21 1.021.322zm-3-7.62c-.998-.576-3.188.23-5.532 2.27a20.09 20.09 0 00-.732.668 31.698 31.698 0 012.684 3.35c1.498.14 2.928.366 4.245.67.053-.213.102-.424.144-.63.667-3.243.253-5.716-.81-6.329zM29.34 27.607c.495-.859.951-1.72 1.363-2.569a44.497 44.497 0 00-1.367-2.548 40.843 40.843 0 00-1.53-2.442 38.118 38.118 0 00-5.788 0 38.2 38.2 0 00-2.89 5.01 38.514 38.514 0 002.906 5.019c.927.06 1.888.09 2.876.09.991 0 1.965-.035 2.907-.102a45.117 45.117 0 001.523-2.458zm2.096-1.004A44.813 44.813 0 0129.54 29.9a28.623 28.623 0 002.962-.505 28.548 28.548 0 00-1.067-2.792zm-6.474 7.17a29.068 29.068 0 001.864-2.293c-.63.028-1.27.043-1.916.043-.63 0-1.25-.013-1.858-.036a30.285 30.285 0 001.91 2.286zm-4.655-3.849a40.387 40.387 0 01-1.897-3.272 30.256 30.256 0 00-1.03 2.803c.907.196 1.887.353 2.927.47zm-1.002-8.104c.314-.545.64-1.079.973-1.599a30.579 30.579 0 00-2.878.493c.276.89.613 1.811 1.009 2.748.283-.55.582-1.098.896-1.642zm5.62-5.449a30.223 30.223 0 00-1.884 2.255 39.834 39.834 0 013.752.001 28.912 28.912 0 00-1.869-2.256zm5.584 5.44c.32.554.625 1.105.913 1.651.402-.939.742-1.856 1.016-2.733a29.879 29.879 0 00-2.895-.506c.33.515.652 1.045.966 1.588zM16.814 18.43c.064.32.137.646.22.978a32.992 32.992 0 014.236-.658 32.49 32.49 0 012.704-3.347 17.34 17.34 0 00-.477-.44c-2.474-2.198-4.823-3.074-5.886-2.459-.997.577-1.393 2.877-.797 5.926zM15.28 28.88c.252.085.514.167.784.245.4-1.308.928-2.68 1.567-4.067a32.403 32.403 0 01-1.549-4.01c-.379.108-.744.223-1.091.345-2.875 1.002-4.6 2.476-4.6 3.632 0 .543.399 1.213 1.185 1.888.877.75 2.155 1.437 3.704 1.967zm4.58 8.652c1.088-.385 2.322-1.149 3.553-2.225.2-.176.402-.362.604-.557a33.156 33.156 0 01-2.724-3.368 31.707 31.707 0 01-4.278-.619c-.09.36-.168.712-.233 1.054-.567 2.991-.15 5.221.85 5.798.471.271 1.25.262 2.227-.083zm13.185-6.062c-.05-.25-.107-.507-.172-.767a31.946 31.946 0 01-4.298.663 32.077 32.077 0 01-2.662 3.38c.267.256.534.5.797.726 2.308 1.986 4.448 2.74 5.448 2.16.47-.272.85-.952 1.04-1.97.21-1.135.166-2.586-.153-4.192zm1.304-2.583c3.143-1.042 5.079-2.634 5.079-3.862 0-1.152-1.793-2.647-4.73-3.659-.304-.104-.62-.203-.944-.298-.39 1.264-.912 2.6-1.545 3.964a32.112 32.112 0 011.607 4.021c.181-.053.36-.109.533-.166z"/><path d="M24.91 22.19a2.835 2.835 0 11-.001 5.67 2.835 2.835 0 010-5.67"/></g></svg>